<?xml version="1.0" standalone="no"?>
<!DOCTYPE svg PUBLIC "-//W3C//DTD SVG 20010904//EN"
 "http://www.w3.org/TR/2001/REC-SVG-20010904/DTD/svg10.dtd">
<svg version="1.0" xmlns="http://www.w3.org/2000/svg"
 width="1280.000000pt" height="1118.000000pt" viewBox="0 0 1280.000000 1118.000000"
 preserveAspectRatio="xMidYMid meet">
<metadata>
Created by potrace 1.15, written by Peter Selinger 2001-2017
</metadata>
<g transform="translate(0.000000,1118.000000) scale(0.100000,-0.100000)"
fill="#000000" stroke="none">
<path d="M1155 11160 c-139 -28 -293 -92 -412 -173 l-51 -34 -73 36 c-70 35
-77 36 -179 36 -102 0 -109 -1 -182 -38 -177 -87 -283 -281 -250 -458 26 -140
120 -262 250 -326 73 -37 80 -38 182 -38 102 0 109 1 181 37 82 40 156 109
202 188 34 59 60 160 55 221 l-3 49 47 20 c26 11 77 27 114 36 87 20 303 32
374 21 254 -38 610 -413 997 -1048 98 -160 240 -412 306 -545 l56 -111 5
-2974 c4 -1636 9 -3043 11 -3128 4 -131 -25 -912 -39 -1021 -2 -19 -11 -52
-20 -72 l-16 -38 -38 15 c-100 39 -167 49 -312 49 -183 0 -299 -28 -449 -110
-209 -114 -364 -303 -439 -534 -61 -185 -58 -404 6 -590 135 -389 521 -650
927 -627 402 23 733 284 851 672 26 83 28 103 28 260 0 157 -2 177 -28 260
-31 101 -93 224 -155 309 l-43 57 16 157 c9 86 19 177 21 202 4 39 59 248 67
255 2 1 91 -45 198 -103 l195 -106 2460 -7 c1353 -3 2778 -7 3168 -8 l707 -1
0 -30 c0 -22 -20 -91 -34 -117 -1 -1 -28 8 -61 19 -209 70 -436 62 -648 -25
-266 -108 -455 -321 -543 -612 -25 -82 -28 -104 -28 -250 0 -146 3 -168 28
-250 82 -269 248 -467 489 -585 173 -84 367 -117 534 -90 438 69 755 397 805
831 25 225 -43 470 -183 655 l-46 62 15 163 c9 90 21 167 26 171 11 7 12 11
15 43 1 13 69 15 548 15 l546 0 236 -106 c206 -92 241 -105 278 -101 55 6 108
40 141 91 38 58 38 165 0 247 l-25 55 -79 22 c-43 11 -180 48 -304 80 l-226
60 -558 7 -559 8 7 90 c3 49 6 166 6 259 l0 168 79 0 c76 0 79 1 89 28 6 15
79 205 162 422 151 394 324 846 510 1330 54 140 157 410 230 600 73 190 176
460 230 600 54 140 157 410 230 600 73 190 176 460 230 600 95 248 360 940
562 1465 54 143 124 323 154 400 30 77 54 149 54 160 0 18 -8 20 -68 23 -112
4 -541 28 -3914 222 -2656 152 -3205 184 -4185 240 -577 33 -1128 65 -1225 70
l-177 11 -58 62 c-491 525 -766 799 -1044 1039 -199 173 -403 322 -539 396
-153 82 -259 98 -435 62z m2743 -1939 c293 -16 535 -31 538 -33 2 -3 7 -198
11 -433 l6 -428 -281 6 c-155 4 -408 10 -562 14 l-280 6 0 449 c0 420 1 448
18 448 9 -1 257 -14 550 -29z m1562 -82 c223 -12 406 -22 406 -23 1 0 4 -185
7 -409 l5 -409 -366 6 c-202 4 -403 9 -448 12 l-81 6 -6 261 c-4 144 -7 333
-7 420 l0 157 43 0 c23 0 224 -9 447 -21z m1400 -72 l405 -22 3 -389 2 -388
-342 6 c-189 4 -384 9 -434 12 l-90 6 -3 399 -3 399 29 -1 c15 0 210 -10 433
-22z m1447 -77 c210 -11 386 -20 392 -20 7 0 11 -121 13 -366 l3 -366 -365 6
c-201 4 -406 9 -456 12 l-91 6 -6 371 c-3 204 -4 374 -1 378 3 5 33 6 67 3 34
-2 234 -14 444 -24z m1473 -75 c184 -9 345 -18 358 -21 l22 -4 0 -341 0 -342
-382 7 c-211 3 -418 9 -460 12 l-78 6 0 356 0 355 103 -6 c56 -4 253 -14 437
-22z m1805 -96 c440 -23 802 -43 804 -45 4 -3 -120 -326 -208 -543 l-26 -64
-125 2 c-113 1 -1027 19 -1245 24 l-90 2 -3 325 c-1 179 0 330 2 336 3 7 21
10 48 8 24 -2 403 -23 843 -45z m-7377 -1016 l242 -6 0 -196 c0 -108 3 -409 7
-670 l6 -474 -164 7 c-90 3 -294 11 -454 16 -159 6 -341 13 -402 16 l-113 6 0
660 0 661 318 -7 c174 -3 426 -9 560 -13z m1358 -29 l311 -6 6 -676 c3 -372 4
-678 2 -680 -5 -5 -886 26 -891 31 -2 1 -6 306 -10 676 l-7 673 139 -6 c76 -3
279 -9 450 -12z m1435 -30 l266 -6 6 -391 c4 -215 7 -525 7 -689 l0 -298 -52
0 c-136 1 -801 30 -807 35 -3 4 -8 312 -10 686 l-3 679 163 -5 c90 -3 284 -8
430 -11z m1402 -30 l317 -6 0 -512 c0 -281 3 -596 7 -700 l6 -189 -224 7
c-334 10 -691 25 -694 28 -1 2 -6 315 -10 697 l-7 694 144 -7 c78 -3 286 -9
461 -12z m1430 -30 l327 -6 0 -242 c0 -132 -3 -452 -7 -711 l-6 -470 -446 17
c-245 9 -447 17 -448 17 -1 1 -3 318 -3 706 l0 706 127 -6 c71 -3 275 -8 456
-11z m1612 -35 c274 -5 500 -11 501 -12 2 -3 -554 -1418 -559 -1424 -3 -2
-114 1 -248 7 -134 5 -290 10 -346 10 l-103 0 0 720 0 720 128 -5 c70 -3 352
-10 627 -16z m-7505 -1705 c283 -9 516 -18 517 -18 1 -1 5 -325 9 -720 l7
-717 -134 6 c-167 7 -826 25 -931 25 l-78 0 0 725 0 726 48 -5 c26 -3 279 -13
562 -22z m1535 -54 c204 -6 379 -13 391 -15 21 -5 21 -5 28 -711 4 -389 6
-708 4 -709 -4 -4 -888 22 -892 26 -2 2 -7 325 -11 718 l-8 713 59 -6 c32 -3
226 -10 429 -16z m1386 -51 l416 -12 6 -216 c4 -119 7 -437 7 -707 l0 -491
-102 4 c-57 2 -248 8 -426 12 -178 5 -325 11 -328 13 -2 3 -7 323 -11 712 -5
607 -4 706 8 702 8 -2 201 -10 430 -17z m1384 -49 c198 -6 387 -13 421 -16
l61 -5 6 -692 c3 -381 3 -695 -1 -698 -4 -3 -194 0 -422 7 -228 7 -431 13
-451 13 l-36 1 -7 696 c-3 382 -4 699 -1 704 3 5 20 7 38 5 17 -3 194 -9 392
-15z m1535 -55 c201 -8 366 -14 368 -15 1 0 1 -311 0 -691 l-3 -692 -110 2
c-233 3 -759 21 -764 26 -2 3 -7 316 -9 695 l-5 690 79 0 c44 0 243 -7 444
-15z m1398 -50 c2 -2 -323 -835 -443 -1135 l-54 -135 -1 643 0 644 248 -7
c136 -4 248 -9 250 -10z m-6990 -1714 c150 -4 274 -10 276 -12 2 -2 7 -183 11
-401 l8 -398 -577 0 -576 0 0 417 0 416 293 -7 c160 -4 415 -11 565 -15z
m1419 -40 c156 -4 285 -9 287 -12 2 -2 6 -174 8 -381 l5 -378 -447 0 -447 0
-6 218 c-4 119 -7 297 -7 395 l0 177 163 -6 c89 -3 289 -9 444 -13z m1369 -37
l311 -7 7 -120 c3 -66 6 -230 6 -364 l0 -243 -432 2 -433 3 -3 374 -2 374 117
-6 c65 -4 258 -10 429 -13z m1457 -41 l307 -6 0 -344 0 -343 -455 0 -455 0 0
158 c0 88 -3 248 -7 357 l-6 198 154 -6 c85 -4 292 -10 462 -14z m1587 -44
c228 -6 416 -12 417 -13 1 -1 -53 -143 -122 -316 l-123 -315 -461 -3 -461 -2
0 336 0 337 168 -7 c92 -3 354 -11 582 -17z m-242 -1226 c23 -137 42 -253 42
-260 0 -9 -54 -11 -217 -7 -120 2 -774 9 -1453 14 -1754 15 -3222 28 -3890 36
l-575 7 -177 202 c-162 185 -192 228 -171 248 3 4 1445 7 3203 7 l3196 0 42
-247z"/>
</g>
</svg>
